<svg width="800" height="620" viewBox="0 0 800 620" fill="none" xmlns="http://www.w3.org/2000/svg">
  <rect width="800" height="620" rx="36" fill="#EAF3FF"/>
  <circle cx="622" cy="112" r="58" fill="#BFDBFE"/>
  <circle cx="153" cy="146" r="34" fill="#93C5FD"/>
  <rect x="92" y="336" width="536" height="118" rx="38" fill="#2563EB"/>
  <rect x="182" y="280" width="270" height="91" rx="30" fill="#60A5FA"/>
  <rect x="228" y="305" width="95" height="52" rx="14" fill="#E0F2FE"/>
  <rect x="335" y="305" width="95" height="52" rx="14" fill="#DBEAFE"/>
  <circle cx="215" cy="465" r="54" fill="#0F172A"/>
  <circle cx="215" cy="465" r="28" fill="#94A3B8"/>
  <circle cx="525" cy="465" r="54" fill="#0F172A"/>
  <circle cx="525" cy="465" r="28" fill="#94A3B8"/>
  <path d="M627 313C668 313 702 279 702 238C702 197 668 163 627 163C586 163 552 197 552 238C552 279 586 313 627 313Z" fill="#1E3A8A"/>
  <path d="M610 248C619.389 248 627 240.389 627 231C627 221.611 619.389 214 610 214C600.611 214 593 221.611 593 231C593 240.389 600.611 248 610 248Z" fill="#F8FAFC"/>
  <path d="M615 255H639C649.493 255 658 263.507 658 274V315H596V274C596 263.507 604.507 255 615 255Z" fill="#F97316"/>
  <path d="M119 316C160 316 194 282 194 241C194 200 160 166 119 166C78 166 44 200 44 241C44 282 78 316 119 316Z" fill="#1E40AF"/>
  <path d="M102 251C111.389 251 119 243.389 119 234C119 224.611 111.389 217 102 217C92.6112 217 85 224.611 85 234C85 243.389 92.6112 251 102 251Z" fill="#F8FAFC"/>
  <path d="M107 258H131C141.493 258 150 266.507 150 277V318H88V277C88 266.507 96.5066 258 107 258Z" fill="#F59E0B"/>
  <path d="M624 196C655 196 680 171 680 140C680 109 655 84 624 84C593 84 568 109 568 140C568 171 593 196 624 196Z" fill="#FBBF24" fill-opacity="0.35"/>
</svg>
